<?xml version="1.0" encoding="UTF-8" standalone="no"?>
<svg
   width="44"
   viewBox="0 0 44 58"
   height="58"
   version="1.1"
   id="svg35"
   sodipodi:docname="excel.svg"
   inkscape:version="1.1.1 (eb90963e84, 2021-10-02)"
   xmlns:inkscape="http://www.inkscape.org/namespaces/inkscape"
   xmlns:sodipodi="http://sodipodi.sourceforge.net/DTD/sodipodi-0.dtd"
   xmlns:xlink="http://www.w3.org/1999/xlink"
   xmlns="http://www.w3.org/2000/svg"
   xmlns:svg="http://www.w3.org/2000/svg">
  <sodipodi:namedview
     id="namedview37"
     pagecolor="#ffffff"
     bordercolor="#111111"
     borderopacity="1"
     inkscape:pageshadow="0"
     inkscape:pageopacity="0"
     inkscape:pagecheckerboard="1"
     showgrid="false"
     inkscape:zoom="7.4375"
     inkscape:cx="21.983193"
     inkscape:cy="29.042017"
     inkscape:window-width="1366"
     inkscape:window-height="740"
     inkscape:window-x="0"
     inkscape:window-y="0"
     inkscape:window-maximized="1"
     inkscape:current-layer="svg35" />
  <defs
     id="defs13">
    <linearGradient
       id="a"
       y1="392.35999"
       y2="336.35999"
       gradientUnits="userSpaceOnUse"
       x2="0"
       gradientTransform="translate(-48,-332.36)">
      <stop
         stop-color="#ffffff"
         stop-opacity="0"
         id="stop2" />
      <stop
         offset="1"
         stop-color="#ffffff"
         stop-opacity=".2"
         id="stop4" />
    </linearGradient>
    <linearGradient
       id="b"
       y1="17"
       x1="40"
       y2="31"
       gradientUnits="userSpaceOnUse"
       x2="54">
      <stop
         stop-color="#060606"
         id="stop7" />
      <stop
         offset="1"
         stop-opacity="0"
         id="stop9" />
    </linearGradient>
    <path
       id="c"
       d="M 10,61 V 3 H 40 L 54,17 V 61 H 40 Z" />
  </defs>
  <g
     color-rendering="auto"
     color-interpolation-filters="linearRGB"
     shape-rendering="auto"
     image-rendering="auto"
     text-rendering="auto"
     color-interpolation="sRGB"
     color="#000000"
     id="g23"
     transform="translate(-10,-3)">
    <use
       fill="#25bb70"
       xlink:href="#c"
       id="use15"
       x="0"
       y="0"
       width="100%"
       height="100%" />
    <g
       transform="scale(1,-1)"
       id="g21">
      <rect
         opacity="0.5"
         x="10"
         y="-4"
         width="30"
         fill="#ffffff"
         height="1"
         id="rect17" />
      <rect
         opacity="0.25"
         x="10"
         y="-61"
         width="44"
         height="1"
         id="rect19" />
    </g>
  </g>
  <g
     fill-rule="evenodd"
     id="g29"
     transform="translate(-10,-3)">
    <path
       opacity="0.5"
       fill="#ffffff"
       d="M 54,17 40,3 v 14 z"
       id="path25" />
    <path
       opacity="0.2"
       fill="url(#b)"
       d="M 40,17 54,31 V 17 Z"
       id="path27"
       style="fill:url(#b)" />
  </g>
  <path
     opacity="0.75"
     color-interpolation-filters="linearRGB"
     color="#000000"
     image-rendering="auto"
     color-rendering="auto"
     stroke-width="2"
     d="m 12,19 c -0.554,0 -1,0.446 -1,1 v 20 c 0,0.554 0.446,1 1,1 h 20 c 0.554,0 1,-0.446 1,-1 V 20 c 0,-0.554 -0.446,-1 -1,-1 z m 0,1 H 32 V 40 H 12 V 21 Z m 1,1 v 2 h 5 v -2 z m 6.5,0 v 2 h 5 v -2 z m 6.5,0 v 2 h 5 v -2 z m -13,4 v 2 h 5 v -2 z m 6.5,0 v 2 h 5 v -2 z m 6.5,0 v 2 h 5 v -2 z m -13,4 v 2 h 5 v -2 z m 6.5,0 v 2 h 5 v -2 z m 6.5,0 v 2 h 5 v -2 z m -13,4 v 2 h 5 v -2 z m 6.5,0 v 2 h 5 v -2 z m 6.5,0 v 2 h 5 v -2 z m -13,4 v 2 h 5 v -2 z m 6.5,0 v 2 h 5 v -2 z m 6.5,0 v 2 h 5 v -2 z"
     color-interpolation="sRGB"
     text-rendering="auto"
     fill="#ffffff"
     shape-rendering="auto"
     id="path31" />
  <use
     fill="url(#a)"
     xlink:href="#c"
     id="use33"
     x="0"
     y="0"
     width="100%"
     height="100%"
     style="fill:url(#a)"
     transform="translate(-10,-3)" />
</svg>
