<?xml version="1.0" encoding="UTF-8" standalone="no"?>
<svg
   viewBox="0 0 44 58"
   version="1.1"
   id="svg28"
   sodipodi:docname="pdf.svg"
   inkscape:version="1.1.1 (eb90963e84, 2021-10-02)"
   xmlns:inkscape="http://www.inkscape.org/namespaces/inkscape"
   xmlns:sodipodi="http://sodipodi.sourceforge.net/DTD/sodipodi-0.dtd"
   xmlns:xlink="http://www.w3.org/1999/xlink"
   xmlns="http://www.w3.org/2000/svg"
   xmlns:svg="http://www.w3.org/2000/svg">
  <sodipodi:namedview
     id="namedview30"
     pagecolor="#ffffff"
     bordercolor="#111111"
     borderopacity="1"
     inkscape:pageshadow="0"
     inkscape:pageopacity="0"
     inkscape:pagecheckerboard="1"
     showgrid="false"
     inkscape:zoom="5.2591067"
     inkscape:cx="11.884148"
     inkscape:cy="25.859905"
     inkscape:window-width="1366"
     inkscape:window-height="740"
     inkscape:window-x="0"
     inkscape:window-y="0"
     inkscape:window-maximized="1"
     inkscape:current-layer="svg28" />
  <defs
     id="defs8">
    <linearGradient
       id="a"
       y1="392.35999"
       y2="336.35999"
       x2="0"
       gradientUnits="userSpaceOnUse"
       gradientTransform="translate(-14,-332.36)">
      <stop
         stop-color="#ffffff"
         stop-opacity="0"
         id="stop2" />
      <stop
         offset="1"
         stop-color="#ffffff"
         stop-opacity=".15"
         id="stop4" />
    </linearGradient>
    <path
       color-rendering="auto"
       color-interpolation-filters="linearRGB"
       shape-rendering="auto"
       image-rendering="auto"
       text-rendering="auto"
       id="b"
       color-interpolation="sRGB"
       color="#000000"
       d="M 10,3 V 61 H 54 V 3 H 40 Z" />
  </defs>
  <use
     fill="#da2c2c"
     xlink:href="#b"
     id="use10"
     x="0"
     y="0"
     width="100%"
     height="100%"
     transform="translate(-10,-3)" />
  <g
     color-rendering="auto"
     color-interpolation-filters="linearRGB"
     shape-rendering="auto"
     image-rendering="auto"
     text-rendering="auto"
     color-interpolation="sRGB"
     color="#000000"
     id="g20"
     transform="translate(-10,-3)">
    <rect
       opacity="0.25"
       x="10"
       y="60"
       width="44"
       height="1"
       id="rect12" />
    <g
       fill="#ffffff"
       id="g18">
      <rect
         opacity="0.5"
         x="10"
         y="3"
         width="44"
         height="1"
         id="rect14" />
      <path
         opacity="0.8"
         d="m 26.301,17.981 c -0.363,0.013 -0.752,0.11 -1.179,0.293 -3.813,1.629 -1,5.371 3.856,8.793 0.029,-0.656 0.047,-1.298 0.04,-1.913 -4.147,-2.838 -5.763,-5.656 -3.768,-6.321 2.139,-0.885 3.718,1.737 3.768,6.321 0.26,0.177 0.521,0.351 0.794,0.53 -0.101,-4.172 -1.016,-7.444 -3.151,-7.685 -0.114,-0.013 -0.239,-0.02 -0.36,-0.016 m 3.511,7.701 -0.497,-0.788 -0.631,0.544 -0.132,0.828 0.832,1.569 0.418,-0.201 c 2.797,1.864 6.138,3.581 9.273,4.76 l 0.931,0.542 1.287,0.031 c 1.186,-0.703 0.479,-0.962 4.789,-1.495 l -4.856,0.369 c -3.746,-1.45 -7.94,-3.887 -11.417,-6.159 m 9.343,6.692 c 0.562,0.045 4.52,-0.647 6.264,-0.815 0.667,-0.087 3.31,-0.277 3.444,1.67 0.456,-1.061 -0.23,-2.066 -1.71,-2.381 -2.287,-0.512 -6.693,1.103 -7.998,1.526 m 2.526,-0.492 c -0.68,0.244 -1.828,0.219 -2.562,0.517 1.041,0.533 6.371,1.947 8.528,1.542 0.345,-0.054 1.289,-0.316 1.325,-1.076 -1.728,1.201 -6.498,0.358 -7.291,-0.982 m 1.421,0.022 c -0.559,-0.179 -3.444,0.709 -4.02,0.49 -3.547,1.182 -7.432,2.883 -10.591,4.698 l -0.915,0.181 -0.707,1.262 -0.949,1.235 1.07,1.065 0.837,-1.374 c 3.699,-2.218 11.01,-5.83 15.277,-7.56 m -15.277,7.56 c -0.452,0.271 -0.884,0.539 -1.293,0.799 -0.474,1.345 -1.84,4.302 -2.778,4.211 0,0 -0.172,0.143 -0.446,0.371 1.441,0.828 3.335,-1.76 4.518,-5.381 m -4.072,5.01 c -2.488,-1.468 1.599,-3.621 2.778,-4.211 0.266,-0.759 0.517,-1.582 0.754,-2.46 -3.715,2.312 -6.04,4.709 -4.796,6.293 0.3,0.383 0.539,0.659 0.816,0.748 m 3.979,-7.04 c 0.385,-0.239 0.79,-0.474 1.204,-0.712 0.732,-2.952 1.217,-6.347 1.318,-9.458 -0.282,-0.188 -0.557,-0.378 -0.826,-0.568 -0.157,3.502 -0.808,7.457 -1.694,10.738"
         id="path16" />
    </g>
  </g>
  <rect
     width="1"
     x="6"
     y="1"
     fill="#ffffff"
     height="56"
     fill-opacity="0.252"
     id="rect22" />
  <rect
     color-interpolation-filters="linearRGB"
     x="7"
     y="1"
     fill-opacity="0.083"
     color="#000000"
     image-rendering="auto"
     color-rendering="auto"
     width="1"
     color-interpolation="sRGB"
     text-rendering="auto"
     height="56"
     shape-rendering="auto"
     id="rect24" />
  <use
     fill="url(#a)"
     xlink:href="#b"
     id="use26"
     x="0"
     y="0"
     width="100%"
     height="100%"
     style="fill:url(#a)"
     transform="translate(-10,-3)" />
</svg>
