<?xml version="1.0" encoding="UTF-8" standalone="no"?>
<svg
   width="44"
   viewBox="0 0 44 58"
   height="58"
   version="1.1"
   id="svg33"
   sodipodi:docname="text.svg"
   inkscape:version="1.1.1 (eb90963e84, 2021-10-02)"
   xmlns:inkscape="http://www.inkscape.org/namespaces/inkscape"
   xmlns:sodipodi="http://sodipodi.sourceforge.net/DTD/sodipodi-0.dtd"
   xmlns:xlink="http://www.w3.org/1999/xlink"
   xmlns="http://www.w3.org/2000/svg"
   xmlns:svg="http://www.w3.org/2000/svg">
  <sodipodi:namedview
     id="namedview35"
     pagecolor="#ffffff"
     bordercolor="#111111"
     borderopacity="1"
     inkscape:pageshadow="0"
     inkscape:pageopacity="0"
     inkscape:pagecheckerboard="1"
     showgrid="false"
     inkscape:zoom="7.4375"
     inkscape:cx="21.983193"
     inkscape:cy="29.042017"
     inkscape:window-width="1366"
     inkscape:window-height="740"
     inkscape:window-x="0"
     inkscape:window-y="0"
     inkscape:window-maximized="1"
     inkscape:current-layer="svg33" />
  <defs
     id="defs13">
    <linearGradient
       id="a"
       y1="17"
       x1="40"
       y2="31"
       gradientUnits="userSpaceOnUse"
       x2="54">
      <stop
         stop-color="#060606"
         id="stop2" />
      <stop
         offset="1"
         stop-opacity="0"
         id="stop4" />
    </linearGradient>
    <linearGradient
       id="b"
       y1="392.35999"
       y2="336.35999"
       gradientUnits="userSpaceOnUse"
       x2="0"
       gradientTransform="translate(-48,-332.36)">
      <stop
         stop-color="#ffffff"
         stop-opacity="0"
         id="stop7" />
      <stop
         offset="1"
         stop-color="#ffffff"
         stop-opacity=".2"
         id="stop9" />
    </linearGradient>
    <path
       id="c"
       d="M 10,61 V 3 H 40 L 54,17 V 61 H 40 Z" />
  </defs>
  <use
     fill="#eeeeee"
     xlink:href="#c"
     id="use15"
     x="0"
     y="0"
     width="100%"
     height="100%"
     transform="translate(-10,-3)" />
  <g
     transform="matrix(1,0,0,-1,-10,-3)"
     id="g21">
    <rect
       width="30"
       x="10"
       opacity="0.6"
       y="-4"
       fill="#ffffff"
       height="1"
       id="rect17" />
    <rect
       width="44"
       x="10"
       opacity="0.15"
       y="-61"
       height="1"
       id="rect19" />
  </g>
  <g
     fill-rule="evenodd"
     id="g27"
     transform="translate(-10,-3)">
    <path
       opacity="0.5"
       d="M 54,17 40,3 v 14 z"
       id="path23" />
    <path
       opacity="0.1"
       fill="url(#a)"
       d="M 40,17 54,31 V 17 Z"
       id="path25"
       style="fill:url(#a)" />
  </g>
  <path
     opacity="0.6"
     color-interpolation-filters="linearRGB"
     color="#000000"
     image-rendering="auto"
     color-rendering="auto"
     d="m 11,19 v 1 h 22 v -1 z m 0,3 v 1 h 22 v -1 z m 0,3 v 1 h 11 v -1 z m 0,4 v 1 h 22 v -1 z m 0,3 v 1 h 19 v -1 z m 0,2 v 1 h 11 v -1 z m 0,3 v 1 h 22 v -1 z m 0,3 v 1 h 16 v -1 z"
     color-interpolation="sRGB"
     text-rendering="auto"
     shape-rendering="auto"
     id="path29" />
  <use
     fill="url(#b)"
     xlink:href="#c"
     id="use31"
     x="0"
     y="0"
     width="100%"
     height="100%"
     style="fill:url(#b)"
     transform="translate(-10,-3)" />
</svg>
